<svg width="80" height="80" viewBox="0 0 80 80" fill="none" xmlns="http://www.w3.org/2000/svg">
<path d="M20 28C24.4183 28 28 24.4183 28 20C28 15.5817 24.4183 12 20 12C15.5817 12 12 15.5817 12 20C12 24.4183 15.5817 28 20 28Z" fill="black"/>
<path d="M72 44V11.32C72 5.08 66.92 0 60.68 0C57.68 0 54.8 1.2 52.68 3.32L47.68 8.32C47.04 8.12 46.36 8 45.64 8C44.04 8 42.56 8.48 41.32 9.28L52.36 20.32C53.16 19.08 53.64 17.6 53.64 16C53.64 15.28 53.52 14.64 53.36 13.96L58.36 8.96C58.96 8.36 59.8 8 60.68 8C62.52 8 64 9.48 64 11.32V44H36.6C35.4 43.16 34.32 42.2 33.32 41.12L27.72 34.92C26.96 34.08 26 33.4 24.96 32.92C23.72 32.32 22.36 32 20.96 32C16 32.04 12 36.04 12 41V44H0V68C0 72.4 3.6 76 8 76C8 78.2 9.8 80 12 80H68C70.2 80 72 78.2 72 76C76.4 76 80 72.4 80 68V44H72Z" fill="black"/>
</svg>
