<svg width="79" height="90" viewBox="0 0 79 90" fill="none" xmlns="http://www.w3.org/2000/svg">
<path d="M54.7796 87.1C53.4463 87.9 52.0629 88.5333 50.6296 89C49.1963 89.4667 47.7129 89.7 46.1796 89.7C41.9129 89.7 38.2796 88.1833 35.2796 85.15C32.2796 82.1167 30.7796 78.4333 30.7796 74.1C30.7796 72.5667 30.9963 71.1 31.4296 69.7C31.8629 68.3 32.5129 66.9667 33.3796 65.7C32.5129 64.4333 31.8629 63.0667 31.4296 61.6C30.9963 60.1333 30.7796 58.6333 30.7796 57.1C30.7796 52.8333 32.2796 49.2 35.2796 46.2C38.2796 43.2 41.9129 41.7 46.1796 41.7C47.7129 41.7 49.2129 41.9167 50.6796 42.35C52.1463 42.7833 53.5129 43.4333 54.7796 44.3C56.0463 43.4333 57.4129 42.7833 58.8796 42.35C60.3463 41.9167 61.8463 41.7 63.3796 41.7C67.6463 41.7 71.2796 43.1833 74.2796 46.15C77.2796 49.1167 78.7796 52.7 78.7796 56.9C78.7796 58.4333 78.5629 59.9333 78.1296 61.4C77.6963 62.8667 77.0463 64.2333 76.1796 65.5C77.0463 66.8333 77.6963 68.25 78.1296 69.75C78.5629 71.25 78.7796 72.7667 78.7796 74.3C78.7796 78.5667 77.2629 82.2 74.2296 85.2C71.1963 88.2 67.5129 89.7 63.1796 89.7C61.6463 89.7 60.1796 89.4667 58.7796 89C57.3796 88.5333 56.0463 87.9 54.7796 87.1ZM54.7796 71.3C56.3129 71.3 57.6296 70.75 58.7296 69.65C59.8296 68.55 60.3796 67.2333 60.3796 65.7C60.3796 64.1667 59.8296 62.85 58.7296 61.75C57.6296 60.65 56.3129 60.1 54.7796 60.1C53.2463 60.1 51.9296 60.65 50.8296 61.75C49.7296 62.85 49.1796 64.1667 49.1796 65.7C49.1796 67.2333 49.7296 68.55 50.8296 69.65C51.9296 70.75 53.2463 71.3 54.7796 71.3ZM14.6796 73.7C12.4796 73.7 10.5963 72.9167 9.02959 71.35C7.46293 69.7833 6.67959 67.9 6.67959 65.7V33.5H3.07959C1.67959 33.5 0.729592 32.85 0.229592 31.55C-0.270408 30.25 0.0462585 29.1333 1.17959 28.2L33.6796 1.8C35.1463 0.6 36.8129 0 38.6796 0C40.5463 0 42.2129 0.6 43.6796 1.8L76.1796 28.2C77.3129 29.1333 77.6296 30.25 77.1296 31.55C76.6296 32.85 75.6796 33.5 74.2796 33.5H70.6796V37.7H62.6796V27.5L38.6796 7.9L14.6796 27.5V65.7H26.6796V73.7H14.6796Z" fill="black"/>
</svg>
