<svg width="75" height="80" viewBox="0 0 75 80" fill="none" xmlns="http://www.w3.org/2000/svg">
<path d="M13.6028 20C12.2428 22.2 12.0028 23.88 12.0028 25.52C12.0028 28.6 16.0028 36 16.0028 40C16.0028 43.8 14.4028 46 14.4028 46H8.40282C8.40282 46 10.0028 43.8 10.0028 40C10.0028 36 6.00282 28.6 6.00282 25.52C6.00282 23.88 6.24282 22.2 7.60282 20H13.6028ZM33.6028 20C32.2428 22.2 32.0028 23.88 32.0028 25.52C32.0028 28.6 36.0028 36 36.0028 40C36.0028 43.8 34.4028 46 34.4028 46H40.4028C40.4028 46 42.0028 43.8 42.0028 40C42.0028 36 38.0028 28.6 38.0028 25.52C38.0028 23.88 38.2428 22.2 39.6028 20H33.6028ZM20.6028 20C19.2428 22.2 19.0028 23.88 19.0028 25.52C19.0028 28.6 23.0028 36.04 23.0028 40C23.0028 43.8 21.4028 46 21.4028 46H27.4028C27.4028 46 29.0028 43.8 29.0028 40C29.0028 36 25.0028 28.6 25.0028 25.52C25.0028 23.88 25.2428 22.2 26.6028 20H20.6028ZM73.8828 18C73.8828 18 74.4028 13.76 74.4028 12C74.4028 5.4 69.0028 0 62.4028 0C56.2428 0 51.1628 4.64 50.4828 10.6L46.1228 52H4.04282C1.64282 52 -0.317181 54.12 0.0428188 56.52C2.12282 69.84 13.5628 80 27.0028 80C40.9228 80 52.3628 69.08 53.8428 55.08L58.4428 11.6C58.6428 9.56 60.3228 8 62.4028 8C64.6028 8 66.4028 9.8 66.4028 12C66.4028 13.2 66.0028 17 66.0028 17L73.8828 18Z" fill="black"/>
</svg>
