<svg width="80" height="72" viewBox="0 0 80 72" fill="none" xmlns="http://www.w3.org/2000/svg">
<path d="M80 72C75.56 72 73.08 70.52 71.28 69.44C69.8 68.56 68.88 68 66.68 68C64.44 68 63.56 68.52 62.08 69.44C60.24 70.52 57.8 72 53.36 72C48.92 72 46.44 70.52 44.64 69.44C43.16 68.56 42.24 68 40.04 68C37.8 68 36.92 68.52 35.44 69.44C33.6 70.52 31.12 72 26.68 72C22.24 72 19.76 70.52 17.96 69.44C16.48 68.52 15.56 68 13.36 68C11.16 68 10.24 68.52 8.76 69.44C6.92 70.52 4.44 72 0 72V64C2.24 64 3.12 63.48 4.6 62.56C6.44 61.48 8.92 60 13.36 60C17.8 60 20.28 61.48 22.08 62.56C23.56 63.48 24.44 64 26.68 64C28.92 64 29.8 63.48 31.28 62.56C33.12 61.48 35.6 60 40.04 60C44.48 60 46.96 61.48 48.76 62.56C50.24 63.44 51.16 64 53.36 64C55.56 64 56.48 63.48 57.96 62.56C59.76 61.48 62.24 60 66.68 60C71.12 60 73.6 61.48 75.4 62.56C76.88 63.48 77.76 64 80 64V72ZM80 54C75.56 54 73.08 52.52 71.28 51.44C69.8 50.56 68.88 50 66.68 50C64.44 50 63.56 50.52 62.08 51.44C60.28 52.52 57.8 54 53.36 54C48.92 54 46.44 52.52 44.64 51.44C43.16 50.56 42.24 50 40.04 50C37.8 50 36.92 50.52 35.44 51.44C33.64 52.52 31.16 54 26.72 54C22.28 54 19.8 52.52 18 51.44C16.52 50.56 15.6 50 13.4 50C11.2 50 10.28 50.52 8.8 51.44C6.92 52.52 4.44 54 0 54V46C2.24 46 3.12 45.48 4.6 44.56C6.4 43.48 8.88 42 13.32 42C17.76 42 20.24 43.48 22.04 44.56C23.52 45.44 24.44 46 26.64 46C28.88 46 29.76 45.48 31.24 44.56C33.04 43.48 35.52 42 39.96 42C44.4 42 46.88 43.48 48.68 44.56C50.16 45.44 51.08 46 53.28 46C55.48 46 56.4 45.48 57.88 44.56C59.68 43.48 62.16 42 66.6 42C71.04 42 73.52 43.48 75.32 44.56C76.8 45.44 77.72 46 79.92 46V54H80ZM26.68 36C28.92 36 29.8 35.48 31.28 34.56C33.12 33.48 35.6 32 40.04 32C44.48 32 46.96 33.48 48.76 34.56C50.24 35.44 51.16 36 53.36 36C55.56 36 56.48 35.48 57.96 34.56C58.44 34.28 59 33.96 59.6 33.64L33.92 7.99999C27.72 1.79999 22 -0.0400055 12 -5.52624e-06V9.99999C19.28 9.95999 23.56 11.56 28 16L32 20L19 33C20.24 33.48 21.24 34.08 22.08 34.56C23.56 35.48 24.44 36 26.68 36Z" fill="black"/>
</svg>
